<?xml version="1.0" encoding="UTF-8" standalone="no"?>
<svg
   id="svg1"
   width="1506.243"
   height="472.879"
   version="1.2"
   viewBox="0 0 771.196 242.114"
   xmlns="http://www.w3.org/2000/svg"
   xmlns:svg="http://www.w3.org/2000/svg">
  <defs
     id="defs1" />
  <style
     id="style1" />
  <g
     id="Background"
     transform="translate(-123.416,-359.728)">
    <path
       d="M 905.03122,464.27392 886.65896,518.948 h -12.88272 l 24.08316,-64.45786 h 8.23431 z m 15.36187,54.67408 -18.46081,-54.67408 -1.10676,-9.78378 h 8.27859 l 24.21596,64.45786 z m -0.84114,-23.95035 v 9.6067 h -34.57527 v -9.6067 z"
       id="text5"
       style="font-weight:600;font-size:90.666px;line-height:0;font-family:Roboto;-inkscape-font-specification:'Roboto Semi-Bold';fill:#5ab6ff;stroke-width:0.330096"
       transform="scale(0.86352,1.15805)"
       aria-label="A" />
    <path
       d="m 963.30308,457.06999 v 63.95302 h -12.07904 v -63.95302 z"
       id="text25"
       style="font-weight:600;font-size:89.9559px;line-height:0;font-family:Roboto;-inkscape-font-specification:'Roboto Semi-Bold';fill:#5ab6ff;fill-rule:evenodd;stroke-width:0.327509"
       transform="scale(0.86715,1.1532)"
       aria-label="I" />
    <g
       id="g4"
       style="display:inline">
      <path
         id="path31"
         d="m 758.501,387.144 v 139.485 c 0.845,6.9 -14.374,18.408 -23.808,17.856 -8.108,-0.474 -13.345,-1.489 -18.633,-5.175 -4.36,-3.04 -9.353,-7.625 -9.316,-12.94 0.063,-9.126 23.653,-27.408 16.303,-21.997 -6.115,4.504 -11.658,13.577 -17.08,16.563 -8.148,4.488 -18.411,-5.461 -25.36,-11.646 -5.206,-4.632 -8.455,-11.32 -10.87,-17.856 -1.12,-3.033 -1.552,-9.575 -1.552,-9.575 l 21.997,0.518 c -15.954,-0.833 -30.145,-6.844 -35.713,-19.15 -2.55,-5.635 -2.55,-11.02 -2.07,-16.563 0.381,-4.404 1.479,-8.545 3.882,-12.68 2.403,-4.135 7.244,-8.04 13.198,-11.646 -0.279,-2.692 -0.067,-13.53 4.14,-19.926 4.172,-6.341 12.422,-11.387 12.422,-11.387 24.783,-11.062 12.7,2.332 22.514,12.422 4.445,4.57 19.426,12.843 20.186,13.457 -17.783,-8.779 -26.859,-15.368 -24.844,-32.09 0.66,-5.47 5.952,-11.68 12.163,-15.01 9.234,-4.95 13.57,-5.586 20.444,-4.657 21.66,2.927 21.997,21.997 21.997,21.997 z"
         style="fill:none;fill-opacity:1;fill-rule:evenodd;stroke:#5ab6ff;stroke-width:10.24;stroke-linecap:round;stroke-linejoin:round;stroke-dasharray:none;stroke-opacity:1" />
      <path
         id="path30"
         d="m 697.362,442.413 c 11.71,20.12 19.739,19.808 37.296,24.469"
         style="fill:none;fill-opacity:1;fill-rule:evenodd;stroke:#5ab6ff;stroke-width:10.24;stroke-linecap:round;stroke-linejoin:round;stroke-dasharray:none;stroke-opacity:1" />
    </g>
    <g
       id="g1">
      <path
         id="path35"
         d="M 779.884,527.492 779.56,369.828 c 20.942,2.503 27.25,7.678 36.658,12.653 v 0"
         style="fill:none;fill-opacity:1;fill-rule:evenodd;stroke:#5ab6ff;stroke-width:10.24;stroke-linecap:round;stroke-linejoin:round;stroke-dasharray:none;stroke-opacity:1" />
      <path
         id="path36"
         d="m 781.506,436.008 35.685,0.65 15.248,-26.603"
         style="fill:none;fill-opacity:1;fill-rule:evenodd;stroke:#5ab6ff;stroke-width:10.24;stroke-linecap:round;stroke-linejoin:round;stroke-dasharray:none;stroke-opacity:1" />
      <path
         id="path37"
         d="m 781.182,463.908 67.477,0.648 15.572,-12.976"
         style="fill:none;fill-opacity:1;fill-rule:evenodd;stroke:#5ab6ff;stroke-width:10.24;stroke-linecap:round;stroke-linejoin:round;stroke-dasharray:none;stroke-opacity:1" />
      <path
         id="path38"
         d="m 781.506,490.51 51.581,0.648 23.034,17.194"
         style="fill:none;fill-opacity:1;fill-rule:evenodd;stroke:#5ab6ff;stroke-width:10.24;stroke-linecap:round;stroke-linejoin:round;stroke-dasharray:none;stroke-opacity:1" />
    </g>
  </g>
  <path
     d="m 56.924519,214.78506 q 0,-2.88399 -0.892664,-5.14999 -0.823998,-2.33466 -3.089993,-4.18866 -2.197328,-1.92266 -6.248652,-3.70799 -3.982657,-1.85399 -10.299975,-3.84532 -7.003983,-2.19733 -13.046636,-4.94399 -6.042652,-2.74666 -10.643308,-6.38598 -4.5319887,-3.63933 -7.0726493,-8.37732 -2.5406606,-4.80665 -2.5406606,-11.12397 0,-6.17999 2.6093271,-11.26131 2.6779936,-5.08132 7.5533148,-8.72064 4.875322,-3.70799 11.467306,-5.69932 6.660651,-1.99133 14.694632,-1.99133 11.123974,0 19.226621,4.05132 8.171314,4.05133 12.634636,10.98664 4.463323,6.93532 4.463323,15.5873 H 56.924519 q 0,-4.66932 -1.991328,-8.23998 -1.922662,-3.57066 -5.90532,-5.63065 -3.91399,-2.06 -9.887976,-2.06 -5.767986,0 -9.61331,1.71666 -3.776658,1.71667 -5.69932,4.66933 -1.853996,2.95266 -1.853996,6.59198 0,2.74666 1.304664,4.94399 1.304663,2.12866 3.913991,4.05132 2.609327,1.854 6.454651,3.50199 3.91399,1.57933 9.063978,3.15866 8.239981,2.472 14.419966,5.49332 6.248652,3.02133 10.368642,6.86665 4.188656,3.84533 6.248651,8.65198 2.128662,4.80666 2.128662,10.91798 0,6.45465 -2.540661,11.53597 -2.54066,5.08132 -7.278649,8.65198 -4.737989,3.57066 -11.398639,5.42465 -6.591985,1.854 -14.763298,1.854 -7.27865,0 -14.419966,-1.92266 -7.07265,-1.99133 -12.840636,-5.90532 Q 6.8666387,230.30369 3.4333136,224.26104 -1.1563301e-5,218.14972 -1.1563301e-5,209.9784 H 18.951943 q 0,4.73799 1.510663,8.10265 1.57933,3.29599 4.394656,5.42466 2.883994,2.05999 6.729318,3.02132 3.845324,0.96133 8.308647,0.96133 5.767986,0 9.475977,-1.57933 3.776658,-1.64799 5.630653,-4.53199 1.922662,-2.88399 1.922662,-6.59198 z m 65.507841,27.32927 q -8.44598,0 -15.17529,-2.74666 -6.72932,-2.74666 -11.467309,-7.62198 -4.669322,-4.94399 -7.209983,-11.46731 -2.471994,-6.59198 -2.471994,-14.1453 v -2.74666 q 0,-8.58331 2.471994,-15.5873 2.471995,-7.07265 7.003984,-12.15397 4.531988,-5.08132 10.849308,-7.82798 6.31732,-2.74666 13.9393,-2.74666 7.89665,0 13.9393,2.67799 6.04265,2.60933 10.09398,7.41599 4.05132,4.80665 6.11131,11.53597 2.06,6.66065 2.06,14.7633 v 7.62198 H 94.347765 v -12.4973 h 40.375905 v -1.37333 q -0.13733,-4.32599 -1.648,-7.89665 -1.51066,-3.63933 -4.66932,-5.76799 -3.15866,-2.19733 -8.17131,-2.19733 -4.05133,0 -7.07265,1.78533 -2.95266,1.71667 -4.94399,4.94399 -1.92266,3.15866 -2.88399,7.55332 -0.96134,4.39465 -0.96134,9.75064 v 2.74666 q 0,4.66932 1.236,8.65198 1.30466,3.98266 3.77666,6.93532 2.54066,2.88399 6.04265,4.53199 3.57066,1.57932 8.10265,1.57932 5.69932,0 10.29997,-2.19732 4.66933,-2.266 8.10265,-6.66065 l 9.13265,9.47597 q -2.33467,3.43333 -6.31732,6.59199 -3.91399,3.15866 -9.47598,5.14999 -5.56199,1.92266 -12.84064,1.92266 z m 60.42653,-60.49519 V 240.741 h -18.12796 v -74.29716 h 17.16663 z m 22.59128,-15.65596 -0.27467,16.89196 q -1.51066,-0.27467 -3.43332,-0.412 -1.854,-0.13734 -3.502,-0.13734 -4.18865,0 -7.34731,1.16733 -3.15866,1.09867 -5.28732,3.22733 -2.06,2.12866 -3.15866,5.21865 -1.09867,3.02133 -1.236,6.86665 l -3.91399,-0.48066 q 0,-7.07265 1.442,-13.1153 1.44199,-6.04266 4.18865,-10.57464 2.74666,-4.53199 6.86665,-7.00399 4.18866,-2.54066 9.61331,-2.54066 1.51067,0 3.22733,0.27467 1.78533,0.206 2.81533,0.618 z m 39.07124,61.86851 q 3.84532,0 6.86665,-1.51066 3.02133,-1.51066 4.80665,-4.25732 1.854,-2.74666 1.99133,-6.38599 H 275.284 q -0.13733,7.55332 -4.25732,13.5273 -4.11999,5.97399 -10.98664,9.47598 -6.79799,3.43333 -15.24397,3.43333 -8.58331,0 -14.96929,-2.884 -6.38599,-2.88399 -10.64331,-8.03398 -4.18866,-5.14998 -6.31732,-11.94797 -2.05999,-6.79798 -2.05999,-14.5573 v -2.19732 q 0,-7.75932 2.05999,-14.5573 2.12866,-6.79799 6.31732,-11.94797 4.25732,-5.14999 10.64331,-8.03399 6.38598,-2.88399 14.90063,-2.88399 8.99531,0 15.79329,3.50199 6.86665,3.50199 10.71198,9.88798 3.91399,6.38598 4.05132,15.03796 h -17.09796 q -0.13733,-3.98265 -1.78533,-7.14131 -1.64799,-3.15866 -4.66932,-5.08132 -3.02132,-1.92267 -7.34731,-1.92267 -4.60066,0 -7.69065,1.92267 -3.02133,1.92266 -4.73799,5.28732 -1.648,3.29599 -2.33466,7.41598 -0.618,4.05132 -0.618,8.51465 v 2.19732 q 0,4.53199 0.618,8.65198 0.68666,4.11999 2.33466,7.41598 1.71666,3.22733 4.73799,5.14999 3.08999,1.92266 7.82798,1.92266 z m 39.62058,-23.48394 v -1.442 q 0,-8.17131 2.33466,-15.03796 2.33466,-6.93532 6.79798,-12.01664 4.46332,-5.08132 10.91798,-7.89665 6.45465,-2.88399 14.69463,-2.88399 8.37731,0 14.83196,2.88399 6.52332,2.81533 10.98664,7.89665 4.46332,5.08132 6.79799,12.01664 2.33466,6.86665 2.33466,15.03796 v 1.442 q 0,8.10265 -2.33466,15.03796 -2.33467,6.86666 -6.79799,12.01664 -4.46332,5.08132 -10.91797,7.89665 -6.45465,2.81533 -14.7633,2.81533 -8.23998,0 -14.7633,-2.81533 -6.52332,-2.81533 -10.98664,-7.89665 -4.46332,-5.14998 -6.79798,-12.01664 -2.33466,-6.93531 -2.33466,-15.03796 z m 18.12795,-1.442 v 1.442 q 0,4.87532 0.96133,9.13265 0.96134,4.25732 2.95266,7.48464 1.99133,3.22733 5.14999,5.08133 3.22733,1.78532 7.69065,1.78532 4.39466,0 7.55332,-1.78532 3.15865,-1.854 5.14998,-5.08133 2.06,-3.22732 3.02133,-7.48464 0.96133,-4.25733 0.96133,-9.13265 v -1.442 q 0,-4.80665 -0.96133,-8.99531 -0.96133,-4.25732 -3.02133,-7.48465 -1.99133,-3.29599 -5.21865,-5.14998 -3.15866,-1.92267 -7.62198,-1.92267 -4.39466,0 -7.55332,1.92267 -3.15866,1.85399 -5.14999,5.14998 -1.99132,3.22733 -2.95266,7.48465 -0.96133,4.18866 -0.96133,8.99531 z m 82.74314,-21.21795 v 59.0532 h -18.12796 v -74.29716 h 17.09796 z m -2.678,19.22663 h -5.56199 q 0,-7.75932 1.854,-14.28264 1.92266,-6.52331 5.63065,-11.32997 3.70799,-4.87532 9.13265,-7.55332 5.49332,-2.67799 12.7033,-2.67799 5.01266,0 9.20131,1.51066 4.18866,1.442 7.20999,4.60066 3.08999,3.08999 4.73798,8.10265 1.648,4.94399 1.648,11.8793 V 240.741 h -18.12796 v -47.72322 q 0,-5.21866 -1.51066,-8.17132 -1.442,-2.95266 -4.18866,-4.11999 -2.74666,-1.23599 -6.59198,-1.23599 -4.25732,0 -7.34732,1.71666 -3.02132,1.648 -5.01265,4.60066 -1.92266,2.95265 -2.88399,6.79798 -0.89267,3.84532 -0.89267,8.30865 z m 45.18256,-3.36466 -7.48465,1.37333 q 0.0687,-7.00399 1.92266,-13.1153 1.854,-6.17999 5.42466,-10.78065 3.63932,-4.66932 8.99531,-7.27865 5.42465,-2.67799 12.4973,-2.67799 5.49332,0 9.88798,1.57933 4.46332,1.51066 7.62198,4.87532 3.15866,3.29599 4.80666,8.58332 1.71666,5.28732 1.71666,12.9093 V 240.741 h -18.26529 v -47.79189 q 0,-5.42465 -1.51066,-8.30865 -1.442,-2.88399 -4.18866,-3.98265 -2.74666,-1.16733 -6.45465,-1.16733 -3.77666,0 -6.59199,1.44199 -2.74666,1.37333 -4.66932,3.84533 -1.85399,2.47199 -2.81532,5.76798 -0.89267,3.22733 -0.89267,7.00399 z m 80.82048,-31.10593 V 240.741 H 490.1415 V 166.44384 Z M 488.9055,147.01122 q 0,-4.05132 2.74666,-6.72932 2.81533,-2.67799 7.55332,-2.67799 4.73798,0 7.48464,2.67799 2.81533,2.678 2.81533,6.72932 0,3.98266 -2.81533,6.66065 -2.74666,2.678 -7.48464,2.678 -4.73799,0 -7.55332,-2.678 -2.74666,-2.67799 -2.74666,-6.66065 z"
     id="text1"
     style="font-weight:600;font-size:140.629px;line-height:0;font-family:Roboto;-inkscape-font-specification:'Roboto Semi-Bold';fill:#3c414b;stroke-width:0.512"
     aria-label="Sercomi" />
  <path
     id="path2"
     style="fill:#5ab6ff;fill-opacity:1;stroke-width:0.512"
     d="m 716.06096,20.422758 a 18.324665,18.324665 0 0 0 -18.325,18.324993 18.324665,18.324665 0 0 0 18.325,18.323993 18.324665,18.324665 0 0 0 18.32399,-18.323993 18.324665,18.324665 0 0 0 -18.32399,-18.324993 z m 0,10.350996 a 7.9733276,7.9733276 0 0 1 7.97299,7.973997 7.9733276,7.9733276 0 0 1 -7.97299,7.972997 7.9733276,7.9733276 0 0 1 -7.974,-7.972997 7.9733276,7.9733276 0 0 1 7.974,-7.973997 z" />
  <path
     id="path2-9"
     style="fill:#5ab6ff;fill-opacity:1;stroke-width:0.512"
     d="m 752.70739,65.718032 a 18.324665,18.324665 0 0 0 -18.325,18.324993 18.324665,18.324665 0 0 0 18.325,18.323995 18.324665,18.324665 0 0 0 18.32399,-18.323995 18.324665,18.324665 0 0 0 -18.32399,-18.324993 z m 0,10.350996 a 7.9733276,7.9733276 0 0 1 7.97299,7.973997 7.9733276,7.9733276 0 0 1 -7.97299,7.972997 7.9733276,7.9733276 0 0 1 -7.974,-7.972997 7.9733276,7.9733276 0 0 1 7.974,-7.973997 z" />
  <path
     id="path2-8"
     style="fill:#5ab6ff;fill-opacity:1;stroke-width:0.512"
     d="m 745.8654,135.59292 a 18.324665,18.324665 0 0 0 -18.325,18.32499 18.324665,18.324665 0 0 0 18.325,18.32399 18.324665,18.324665 0 0 0 18.32399,-18.32399 18.324665,18.324665 0 0 0 -18.32399,-18.32499 z m 0,10.35099 a 7.9733276,7.9733276 0 0 1 7.97299,7.974 7.9733276,7.9733276 0 0 1 -7.97299,7.973 7.9733276,7.9733276 0 0 1 -7.974,-7.973 7.9733276,7.9733276 0 0 1 7.974,-7.974 z" />
</svg>
